<svg xmlns="http://www.w3.org/2000/svg" width="1133" height="388" viewBox="0 0 1133 388" fill="none"><path d="M570.159 116.34h-94.971c-11.854 0-21.112 9.257-21.112 21.112v133.799c0 11.855 9.258 21.112 21.112 21.112 11.855 0 21.112-9.257 21.112-21.112v-46.02h63.004c10.855 0 19.38-8.525 19.38-19.381s-8.525-19.38-19.38-19.38H496.3v-31.236h73.926c10.722 0 19.38-8.724 19.38-19.38 0-10.656-8.724-19.514-19.447-19.514zM645.217 114.942c-11.855 0-21.113 9.257-21.113 21.112v133.798c0 11.855 9.258 21.112 21.113 21.112h87.711c10.856 0 19.381-8.524 19.381-19.38s-8.525-19.381-19.381-19.381h-66.599V136.054c0-11.855-9.258-21.112-21.112-21.112zM855.672 113.476c-52.081 0-92.84 39.627-92.84 90.176v.466c0 51.149 39.693 89.71 92.374 89.71 52.081 0 92.84-39.627 92.84-90.176v-.466c0-51.148-39.694-89.71-92.374-89.71zm48.484 90.642c0 28.705-20.845 50.416-48.484 50.416-27.905 0-48.951-21.844-48.951-50.882v-.466c0-28.704 20.846-50.416 48.485-50.416 27.905 0 48.95 21.845 48.95 50.882v.466zM1036.16 293.961c19.51 0 36.83-6.193 50.15-17.982l2.99-2.597.94 3.863c2.13 8.724 10.85 14.852 21.11 14.852 12.12 0 21.64-9.391 21.64-21.312V186.07c0-23.909-6.46-42.291-19.18-54.745l-.06-.067c-12.73-13.053-33.04-19.979-58.75-19.979-20.51 0-37.29 3.063-56.272 10.256-7.193 2.797-12.255 10.19-12.255 17.915 0 10.323 8.525 18.715 19.047 18.715 2.13 0 4.26-.333 6.79-1.066l.34-.133c11.39-4.462 23.51-6.66 37.16-6.66 12.59 0 22.38 2.731 29.1 8.125 6.86 5.528 10.59 13.72 11.06 24.509l.13 3.33-3.19-.866c-8.26-2.331-21.52-5.395-40.7-5.395-22.71 0-41.49 5.328-54.209 15.451-12.587 9.99-19.181 24.642-19.181 42.358v.666c0 32.634 26.041 55.477 63.34 55.477zm-20.05-57.742c0-10.189 5.26-17.848 15.18-22.177 7.73-3.33 16.65-4.063 22.72-4.063 15.65 0 27.63 2.997 35.03 5.528l1.6.533v10.056c0 19.914-18.32 34.366-43.49 34.366-7.86 0-15.19-1.798-20.58-5.062-6.93-4.196-10.53-10.589-10.53-18.515v-.666h.07zM373.824 14.376C359.372-.076 338.726-3.939 319.878 4.186c-25.574 11.056-39.094 35.831-49.017 58.608l-38.495 93.04 92.84-38.362.2-.066c22.777-9.924 47.552-23.443 58.607-49.018 8.126-18.847 4.263-39.56-10.189-54.012zm-11.855 44.422c-4.329 10.057-13.253 22.244-46.087 36.497l-39.294 16.25 16.251-39.294c8.058-18.448 18.647-38.361 36.496-46.087 9.79-4.262 20.047-2.33 27.506 5.128 7.459 7.46 9.39 17.782 5.128 27.506zm-41.758 106.16c-26.906-10.656-55.145-2.398-79.254 7.126l-25.041 10.39a49.903 49.903 0 00-10.256-10.257l10.323-24.841.066-.2c9.457-24.109 17.782-52.347 7.126-79.254-7.792-19.78-25.84-32.034-46.952-32.034s-39.161 12.254-46.953 32.034c-2.531 6.46-3.996 12.987-4.662 19.514-5.062-4.196-10.723-7.792-17.05-10.523-19.513-8.458-40.892-4.395-55.877 10.523-14.918 14.918-18.98 36.363-10.522 55.877 2.73 6.394 6.327 11.988 10.522 17.05-6.526.599-13.053 2.064-19.513 4.661C12.32 172.75 0 190.732 0 211.911c0 21.178 12.254 39.16 32.034 46.952 6.46 2.531 12.987 3.996 19.514 4.662-4.196 5.062-7.792 10.723-10.523 17.05-8.458 19.514-4.395 40.892 10.523 55.877 9.79 9.79 22.311 14.852 35.298 14.852 6.86 0 13.853-1.399 20.579-4.329 6.394-2.731 11.988-6.327 17.05-10.523.599 6.527 2.064 13.053 4.662 19.514 7.792 19.78 25.84 32.034 46.952 32.034s39.161-12.254 46.953-32.034c2.531-6.461 3.996-12.987 4.662-19.514 5.062 4.196 10.723 7.792 17.05 10.523 6.726 2.93 13.719 4.329 20.579 4.329 12.987 0 25.508-5.129 35.298-14.852 14.918-14.918 18.981-36.363 10.522-55.877-2.73-6.394-6.327-11.988-10.522-17.05 6.526-.599 13.053-2.064 19.513-4.662 19.78-7.792 32.035-25.84 32.035-46.952s-12.188-39.161-31.968-46.953zM40.892 236.552c-10.59-4.195-16.916-13.386-16.916-24.641 0-11.256 6.327-20.446 16.916-24.642 4.662-1.865 10.256-3.33 17.915-3.33 9.857 0 23.11 2.464 42.291 9.923.333.133.733.333 1.066.466l25.041 10.39c-.333 2.397-.533 4.795-.533 7.259 0 2.464.2 4.929.533 7.26l-24.841 10.256-.2.067c-.4.199-.799.333-1.266.532-19.313 7.459-41.358 13.853-60.006 6.46zm95.504 39.96l-.067.2c-.133.4-.333.799-.466 1.265-8.391 18.981-19.447 39.028-37.828 47.02-10.456 4.529-21.445 2.464-29.37-5.461-7.926-7.926-9.99-18.915-5.462-29.371 4.529-10.456 13.72-23.11 47.153-37.895.333-.133.732-.266 1.065-.4l25.042-10.389a49.898 49.898 0 0010.256 10.256l-10.323 24.775zm0-94.105l-24.842-10.323-.199-.067c-.4-.133-.866-.333-1.266-.466-18.98-8.391-39.027-19.447-47.02-37.828-4.528-10.456-2.463-21.445 5.462-29.371 7.925-7.925 18.914-9.99 29.37-5.46 10.457 4.528 23.111 13.719 37.896 47.152.133.399.266.732.466 1.132l10.389 25.041c-3.862 2.864-7.326 6.327-10.256 10.19zm64.402 164.701c-4.196 10.589-13.387 16.916-24.642 16.916-11.255 0-20.446-6.327-24.642-16.916-4.196-10.59-6.66-26.041 6.527-60.14.133-.399.333-.732.466-1.132l10.39-25.041c2.397.333 4.795.533 7.259.533 2.464 0 4.928-.2 7.259-.533l10.257 24.841.066.2c.2.4.333.799.533 1.266 7.526 19.38 13.919 41.358 6.527 60.006zm-50.15-135.197c0-14.053 11.455-25.508 25.508-25.508 14.053 0 25.508 11.455 25.508 25.508 0 14.052-11.455 25.507-25.508 25.507-14.053 0-25.508-11.455-25.508-25.507zm43.09-73.726l-10.256 24.775c-2.398-.333-4.862-.533-7.326-.533-2.464 0-4.928.2-7.259.533l-10.323-24.842-.067-.2c-.2-.399-.333-.799-.533-1.265-7.525-19.314-13.852-41.358-6.46-60.006 4.196-10.59 13.387-16.917 24.642-16.917 11.255 0 20.446 6.327 24.642 16.917 4.262 10.722 6.726 26.44-7.06 61.538zm89.976 181.284c-7.925 7.925-18.914 9.99-29.37 5.461s-23.11-13.719-37.895-47.152a8.206 8.206 0 00-.466-1.133l-10.39-25.041a49.898 49.898 0 0010.256-10.256l24.842 10.323.2.066c.399.133.799.333 1.199.466 18.98 8.392 39.094 19.447 47.019 37.896 4.595 10.389 2.597 21.378-5.395 29.37zm27.639-82.917c-10.589 4.196-26.04 6.66-60.139-6.526-.333-.133-.733-.333-1.066-.466l-25.041-10.39c.333-2.398.532-4.795.532-7.259a53.42 53.42 0 00-.532-7.326l24.775-10.257c19.713-7.725 42.424-14.652 61.538-7.059 10.589 4.196 16.916 13.386 16.916 24.642 0 11.255-6.393 20.446-16.983 24.641z" fill="#009FFF"/></svg>