<svg xmlns="http://www.w3.org/2000/svg" viewBox="0 0 204 204"><path d="M195.929 153.396v.405h.373c.083 0 .153-.02.204-.051s.075-.086.075-.153-.028-.118-.075-.149-.122-.051-.204-.051zm.377-.283c.193 0 .342.043.448.13a.43.43 0 01.157.354c0 .126-.039.228-.126.31s-.2.13-.358.149l.495.57h-.385l-.46-.566h-.149v.566h-.322v-1.513zm-.098 2.036c.177 0 .342-.035.491-.102a1.29 1.29 0 00.401-.271 1.268 1.268 0 00.369-.9c0-.177-.035-.342-.098-.495s-.157-.291-.271-.405a1.29 1.29 0 00-.401-.271 1.253 1.253 0 00-.491-.094 1.31 1.31 0 00-.499.094 1.28 1.28 0 00-.409.271 1.23 1.23 0 00-.267.405c-.067.153-.098.318-.098.495s.031.342.098.495a1.19 1.19 0 00.267.405 1.28 1.28 0 00.409.271c.153.067.322.102.499.102m0-2.904a1.68 1.68 0 011.175.48 1.6 1.6 0 01.354.519c.086.196.13.409.13.633s-.043.436-.13.633a1.69 1.69 0 01-.354.519c-.153.145-.326.263-.527.35s-.417.13-.648.13-.452-.043-.656-.13-.381-.204-.53-.35a1.69 1.69 0 01-.354-.519c-.086-.196-.13-.409-.13-.633s.043-.436.13-.633a1.6 1.6 0 01.354-.519 1.58 1.58 0 01.53-.35c.204-.086.42-.13.656-.13m-153.102-5.828c0-2.884 1.89-5.254 4.979-5.254 2.951 0 4.943 2.267 4.943 5.254s-1.992 5.254-4.943 5.254c-3.089 0-4.979-2.37-4.979-5.254m13.286 0v-8.205h-3.568v1.992c-1.132-1.478-2.849-2.405-5.183-2.405-4.602 0-8.209 3.607-8.209 8.618s3.607 8.618 8.209 8.618c2.334 0 4.051-.927 5.183-2.405v1.992h3.568zm120.577 0c0-2.884 1.89-5.254 4.979-5.254 2.955 0 4.943 2.267 4.943 5.254s-1.988 5.254-4.943 5.254c-3.089 0-4.979-2.37-4.979-5.254m13.29 0v-14.795h-3.572v8.582c-1.132-1.478-2.849-2.405-5.183-2.405-4.602 0-8.209 3.607-8.209 8.618s3.607 8.618 8.209 8.618c2.334 0 4.051-.927 5.183-2.405v1.992h3.572zm-89.576-5.423c2.299 0 3.776 1.442 4.154 3.981h-8.515c.381-2.37 1.819-3.981 4.362-3.981m.071-3.195c-4.81 0-8.174 3.501-8.174 8.618 0 5.219 3.501 8.618 8.413 8.618 2.472 0 4.735-.617 6.728-2.299l-1.749-2.645c-1.375 1.096-3.128 1.717-4.774 1.717-2.299 0-4.393-1.065-4.908-4.02h12.186c.035-.444.071-.892.071-1.371-.035-5.116-3.195-8.618-7.792-8.618m43.084 8.618c0-2.884 1.89-5.254 4.979-5.254 2.951 0 4.943 2.267 4.943 5.254s-1.992 5.254-4.943 5.254c-3.089 0-4.979-2.37-4.979-5.254m13.286 0v-8.205h-3.568v1.992c-1.136-1.478-2.849-2.405-5.183-2.405-4.602 0-8.209 3.607-8.209 8.618s3.607 8.618 8.209 8.618c2.334 0 4.048-.927 5.183-2.405v1.992h3.568zm-33.437 0c0 4.979 3.466 8.618 8.755 8.618 2.472 0 4.118-.55 5.902-1.957l-1.713-2.884c-1.34.963-2.747 1.478-4.295 1.478-2.849-.035-4.943-2.094-4.943-5.254s2.094-5.219 4.943-5.254c1.548 0 2.955.515 4.295 1.478l1.713-2.884c-1.784-1.407-3.431-1.957-5.902-1.957-5.289 0-8.755 3.639-8.755 8.618m46.004-8.618c-2.059 0-3.399.963-4.327 2.405v-1.992h-3.537v16.41h3.572v-9.199c0-2.715 1.167-4.224 3.501-4.224.723 0 1.478.102 2.232.413l1.1-3.364c-.79-.31-1.819-.448-2.542-.448m-95.651 1.717c-1.717-1.132-4.083-1.717-6.692-1.717-4.158 0-6.834 1.992-6.834 5.254 0 2.676 1.992 4.327 5.663 4.841l1.686.24c1.957.275 2.88.79 2.88 1.717 0 1.269-1.305 1.992-3.741 1.992-2.472 0-4.256-.79-5.458-1.717l-1.682 2.778c1.957 1.442 4.429 2.13 7.105 2.13 4.739 0 7.486-2.232 7.486-5.356 0-2.884-2.161-4.393-5.733-4.908l-1.682-.244c-1.544-.204-2.782-.511-2.782-1.611 0-1.202 1.167-1.922 3.124-1.922 2.094 0 4.122.79 5.116 1.407zm46.039-1.717c-2.059 0-3.399.963-4.323 2.405v-1.992h-3.537v16.41h3.568v-9.199c0-2.715 1.167-4.224 3.501-4.224.723 0 1.478.102 2.232.413l1.1-3.364c-.79-.31-1.819-.448-2.542-.448m-30.451.413h-5.835v-4.979h-3.607v4.979h-3.328v3.262h3.328v7.486c0 3.808 1.478 6.075 5.698 6.075 1.548 0 3.332-.479 4.464-1.269l-1.03-3.057c-1.065.617-2.232.927-3.159.927-1.784 0-2.366-1.1-2.366-2.747v-7.415h5.835zm-53.353 16.41v-10.3c0-3.879-2.472-6.488-6.456-6.523-2.094-.035-4.256.617-5.769 2.92-1.132-1.819-2.916-2.92-5.423-2.92-1.753 0-3.466.515-4.806 2.436v-2.024h-3.572v16.41h3.603v-9.097c0-2.849 1.58-4.362 4.02-4.362 2.37 0 3.568 1.544 3.568 4.327v9.132h3.607v-9.097c0-2.849 1.647-4.362 4.016-4.362 2.436 0 3.603 1.544 3.603 4.327v9.132z" fill="#231f20"/><path d="M198.13 100.048v-2.397h-.625l-.723 1.647-.719-1.647h-.629v2.397h.444V98.24l.676 1.56h.46l.676-1.564v1.812zm-3.965 0V98.06h.802v-.405h-2.043v.405h.802v1.988z" fill="#f79410"/><path d="M127.082 110.359H73.004V13.171h54.078z" fill="#ff5f00"/><path d="M76.469 61.757c0-19.715 9.231-37.276 23.605-48.594A61.542 61.542 0 0061.878-.052C27.745-.052.077 27.621.077 61.757s27.668 61.809 61.801 61.809a61.542 61.542 0 0038.196-13.215C85.699 99.034 76.469 81.472 76.469 61.757" fill="#eb001b"/><path d="M200.016 61.757c0 34.137-27.668 61.809-61.801 61.809a61.562 61.562 0 01-38.2-13.215c14.378-11.317 23.609-28.879 23.609-48.594s-9.231-37.276-23.609-48.594a61.556 61.556 0 0138.2-13.215c34.133 0 61.801 27.672 61.801 61.809" fill="#f79e1b"/></svg>