<svg xmlns="http://www.w3.org/2000/svg" version="1.1" title="icons / nav / help" fill="#828282" viewBox="0 0 48 48"><path d="M23.5,5.75044723 C13.7084079,5.75044723 5.75044723,12.3331843 5.75044723,20.4194991 C5.75044723,24.8843918 8.18000894,29.0559034 12.4248658,31.8613596 L13.0391324,32.2647585 L13.0391324,38.9116726 L19.3743292,34.6943202 L19.9152504,34.7860018 C21.0995998,34.9869513 22.298724,35.0881561 23.5,35.088551 C33.2549195,35.088551 41.2495528,28.505814 41.2495528,20.4194991 C41.2495528,12.3331843 33.2549195,5.75044723 23.5,5.75044723 Z M22.0147585,19.5760286 C24.7193649,19.1176208 26.2321109,18.0907871 26.2321109,16.688059 C26.2321109,15.4686941 25.2694544,14.6710644 23.84839,14.6710644 C22.5317059,14.6434885 21.2629062,15.1649586 20.3461538,16.1104651 L18.0999553,13.7267442 C19.6476167,12.2618777 21.6990767,11.4478584 23.8300537,11.4530411 C27.3139535,11.4530411 29.8993739,13.6992397 29.8993739,16.7247317 C29.8993739,19.0351073 28.5699911,20.5753578 25.4528175,21.7855546 L25.4528175,24.3067979 L22.0147585,24.3067979 L22.0147585,19.5760286 Z M22.0147585,29.8627013 L22.0147585,26.4338104 L25.4528175,26.4338104 L25.4528175,29.8718694 L22.0147585,29.8627013 Z M10.3345259,44.0550089 L10.3345259,33.7316637 C5.6495975,30.4127907 3,25.5995081 3,20.4194991 C3,10.8112701 12.1681574,3 23.5,3 C34.8318426,3 44,10.8112701 44,20.4194991 C44,30.0277281 34.8318426,37.8389982 23.5,37.8389982 C22.3279324,37.837795 21.1574799,37.7520027 19.9977639,37.5822898 L10.3345259,44.0550089 Z" id="Shape"/></svg>