<svg xmlns="http://www.w3.org/2000/svg" id="Calque_1" viewBox="0 0 175 47"><defs><style>.cls-1{fill:#1cc870}.cls-4{fill:#fff}.cls-5{fill:#ff8f8d}.cls-6{fill:#0ed8bf}.cls-7{fill:#ff60d9}.cls-8{fill:#f06}.cls-9{stroke:#f06;fill:none;stroke-linecap:round;stroke-miterlimit:10;stroke-width:.4px}</style></defs><path id="Fill-2" d="M159.4 23.5l-3.1 3.3c-.3.2-.3.6-.1.9l.1.1.5.5c.2.2.6.3.8.1l.1-.1 4.1-4.3c.3-.2.3-.6.1-.9l-.1-.1-4.1-4.3c-.2-.2-.6-.3-.8-.1l-.1.1-.5.5c-.3.2-.3.6-.1.9l.1.1 3.1 3.3z" fill-rule="evenodd"/><path class="cls-6" d="M7.1 9.4h7.5c3 0 4.1.9 4.1 3.3 0 1.2-.2 1.9-.9 2.3-.5.3-.8.4-1.4.5v.1c1.9.1 2.5.9 2.5 3 0 2.5-1.1 3.4-4.3 3.4H7.1V9.4zm6 4.9h1.4c.39-.08.5-.5.5-1.1 0-.8-.2-1.1-1.3-1.1h-3v2.2h2.4zm.1 4.7c1.6 0 2-.1 2-1.1 0-.8-.1-1-.6-1.2-.1 0-.5-.1-1.2-.1h-2.7V19h2.5zM24.3 19h5.8v2.9h-9.5V9.4h3.7V19zM35.3 19.7l-.7 2.1h-3.9l4.1-12.5h5.6l4.2 12.5h-3.8l-.7-2.1h-4.8zm2.5-7.8L36 17.3h3.4c.1 0-1.7-5.4-1.6-5.4zM57.3 17.1v.4c0 2.1-.2 2.8-1.2 3.5-.5.4-1.2.7-1.9.8-.4.1-1.3.1-2.6.1-2.5 0-3.1-.1-4-.4-1.2-.5-2-1.4-2.2-2.6-.2-.6-.2-2.4-.2-4.4s.3-3.2 1.3-4c1.1-1 2.2-1.2 5.4-1.2 2 0 2.7.1 3.5.4 1 .4 1.5 1.2 1.7 2.3.1.4.1.8.1 1.8h-3.7c0-.8-.1-.9-.2-1.2-.2-.4-.8-.5-2.1-.5s-1.9.2-2.1.9c-.2.4-.2 1.1-.2 3.7 0 2 .4 2.4 2.4 2.4 1.8 0 2.3-.3 2.3-1.6v-.4h3.7zM62.6 14.1h1.1l3.5-4.7h4.5l-4.9 6.1 5.3 6.3h-4.5l-3.8-4.9h-1.1v4.9H59V9.4h3.7l-.1 4.7z"/><path d="M14.3 36h-3.2l-3.7-9.3h-1v-1.6h7.5v1.6h-1.2l1.8 4.9 2.4-6.5h2.2l3 6.8 1.6-5h-1.3v-1.8h3.9v1.8h-1.1l-3 9.1H19l-2.5-5.8-2.2 5.8zM41.1 25.3l1.3 2.4-8 4.9c.4.2.8.4 1.4.4 1.6 0 3-1 4-2.5l2.5 2.2c-1.5 2-3.8 3.6-7.5 3.6-4.6 0-7.5-2.1-7.5-5.5s2.7-5.6 6.8-5.6c2.1 0 3.7.8 4.7 1.8.1 0 2.3-1.7 2.3-1.7zm-4.7 3.6c-.3-.5-.8-.8-1.4-.8-1.2 0-1.8.8-1.8 2.2 0 .3 0 .6.2.9-.1.1 3-2.3 3-2.3zM56.8 25.3l1.3 2.4-8 4.9c.4.2.8.4 1.4.4 1.6 0 3-1 4-2.5l2.5 2.2c-1.5 2-3.8 3.6-7.5 3.6-4.6 0-7.5-2.1-7.5-5.5s2.7-5.6 6.8-5.6c2.1 0 3.7.8 4.7 1.8.2 0 2.3-1.7 2.3-1.7zm-4.7 3.6c-.3-.5-.8-.8-1.4-.8-1.2 0-1.8.8-1.8 2.2 0 .3 0 .6.2.9-.1.1 3-2.3 3-2.3zM68.4 27h-1.3v-1.5H72V27h-1.4s-1.5 1.5-1.6 1.5l4.6 7.2v.3h-5.3l-2.6-4.3-.7.7v2.2h1V36h-6.8v-1.5h1V27h-1v-1.5H66V27h-.9v3.8l3.3-3.8z"/><path class="cls-7" d="M23.8 23h-4.2c-.1 0-.2-.1-.2-.2v-4.3c0-.1.1-.2.2-.2s.2.1.2.2v4.1h4c.1 0 .2.1.2.2s-.1.2-.2.2z"/><path class="cls-4" d="M21.7 21c-.1 0-.2-.1-.2-.2v-9.9c0-.1.1-.2.2-.2s.2.1.2.2v9.9c0 .1-.1.2-.2.2zM8.2 20.8c-.1 0-.2-.1-.2-.2v-9.9c0-.1.1-.2.2-.2s.2.1.2.2v9.9c0 .1-.1.2-.2.2z"/><path class="cls-8" d="M13.4 23.2H7.3c-.1 0-.2-.1-.2-.2s.1-.2.2-.2h6.1c.1 0 .2.1.2.2s-.1.2-.2.2z"/><path class="cls-1" d="M10.2 8.6H7.1c-.1 0-.2-.1-.2-.2s.1-.2.2-.2h3.1c.1 0 .2.1.2.2s-.1.2-.2.2z"/><path d="M39.3 20.8h-3.1c-.1 0-.2-.1-.2-.2s.1-.2.2-.2h3.1c.1 0 .2.1.2.2s-.1.2-.2.2z" fill="#a38eed"/><path class="cls-1" d="M28.3 18.4h-3.1c-.1 0-.2-.1-.2-.2s.1-.2.2-.2h3.1c.1 0 .2.1.2.2s-.1.2-.2.2z"/><path class="cls-5" d="M31 17.5s-.1 0 0 0c-.2-.1-.2-.2-.2-.3l2-5.9c0-.1.2-.2.3-.1s.2.2.1.3l-2 5.9q-.1.1-.2.1z"/><path class="cls-8" d="M39.2 8.6h-2.8c-.1 0-.2-.1-.2-.2s.1-.2.2-.2h2.8c.1 0 .2.1.2.2s-.1.2-.2.2z"/><path class="cls-4" d="M43.4 21c-.1 0-.2 0-.2-.1L39.5 11c0-.1 0-.2.1-.3.1 0 .2 0 .3.1l3.7 9.9c0 .1 0 .2-.2.3q0-.1 0 0zM46.5 18.5c-.1 0-.2-.1-.2-.2v-5.9c0-.1.1-.2.2-.2s.2.1.2.2v5.9c0 .1-.1.2-.2.2z"/><path class="cls-7" d="M57.9 10.3q-.1 0-.2-.1c-1.7-2.8-6.9-1.9-7-1.9s-.2-.1-.2-.2 0-.2.2-.2c.1 0 1.4-.3 3-.1 2.1.2 3.7.9 4.4 2.2.1.1 0 .2-.1.3h-.1z"/><path class="cls-4" d="M60.1 20.9c-.1 0-.2-.1-.2-.2v-9.9c0-.1.1-.2.2-.2s.2.1.2.2v9.9c0 .1-.1.2-.2.2z"/><path class="cls-5" d="M53.7 23.2h-4.9c-.1 0-.2-.1-.2-.2s.1-.2.2-.2h4.9c.1 0 .2.1.2.2s-.1.2-.2.2z"/><path class="cls-7" d="M105.21 19.92H95.9c-.19 0-.38-.1-.38-.2s.19-.2.38-.2h9.31c.19 0 .38.1.38.2s-.19.2-.38.2z"/><path class="cls-5" d="M128.73 22.9c-.1 0-.2-.1-.2-.2-1.2-3.4-5.8-2.7-5.9-2.7s-.3-.1-.3-.2.1-.3.2-.3 5.1-.8 6.4 3c0 .2 0 .3-.2.4z"/><path class="cls-6" d="M117.07 38.31c-1.8 0-4.95-.45-6.08-3.49-.11-.11 0-.34.23-.34.11 0 .34 0 .34.23 1.35 3.83 6.53 3.04 6.64 3.04s.34.11.34.23-.11.34-.23.34h-1.24z"/><path class="cls-8" d="M153.26 30.5c-.1 0-.2-.1-.2-.2-.1-.9-.4-1.5-.9-1.9-1.1-.8-2.7-.5-2.8-.5s-.3-.1-.3-.2.1-.3.2-.3 1.9-.4 3.1.6c.7.5 1 1.3 1.1 2.3 0 .1-.1.2-.2.2z"/><path class="cls-9" d="M84.4 31.1h3"/><path d="M17.84 9.21s2.26 1.27 1.51 4.99" stroke="#a38eed" fill="none" stroke-linecap="round" stroke-miterlimit="10" stroke-width=".4"/><path class="cls-9" d="M68.04 15.68l3.07 3.54"/><path d="M105.72 15.67c-.38 0-.75-.12-1.12-.36l.21-.7c.27.25.57.38.88.38.26 0 .45-.08.59-.25.14-.17.21-.41.21-.71V9.82h.7V14c0 .55-.13.96-.38 1.25-.25.29-.62.43-1.1.43zM109.88 15.66c-.46 0-.82-.16-1.1-.48-.28-.32-.41-.79-.41-1.4v-2.45h.67v2.41c0 .42.09.73.27.95.18.22.42.33.73.33.22 0 .42-.06.6-.19s.32-.3.43-.52.16-.46.16-.72v-2.26h.67v4.26h-.58l-.07-.78c-.14.26-.33.46-.58.62-.24.16-.51.24-.79.24zM114.54 15.67c-.35 0-.67-.08-.97-.23-.3-.15-.54-.37-.74-.65l.43-.49c.32.5.74.74 1.27.74.27 0 .48-.05.63-.15s.22-.25.22-.44c0-.33-.24-.56-.73-.68l-.49-.13c-.35-.09-.61-.24-.81-.45-.2-.21-.29-.46-.29-.75 0-.24.06-.45.19-.64s.3-.33.51-.44c.22-.11.46-.16.74-.16.3 0 .58.06.84.19s.46.3.61.53l-.42.5c-.15-.21-.3-.36-.46-.45-.16-.09-.35-.14-.56-.14s-.41.05-.55.16c-.14.11-.22.25-.22.42 0 .16.06.28.17.38.11.09.3.18.57.25l.47.13c.36.1.64.26.84.47.2.21.3.47.3.77 0 .37-.14.68-.42.91-.28.23-.65.35-1.11.35zM120.06 17.16v-2.38c-.13.27-.32.48-.57.64s-.54.24-.86.24c-.35 0-.67-.09-.95-.28-.28-.19-.51-.45-.67-.78-.16-.33-.25-.72-.25-1.14s.08-.82.25-1.15c.16-.33.39-.59.67-.78.28-.19.6-.28.95-.28.32 0 .61.08.87.24.26.16.45.38.58.64l.08-.8h.58v5.84h-.67zm-1.3-2.16c.25 0 .47-.07.67-.2.2-.13.35-.31.47-.55.11-.24.17-.51.17-.81s-.06-.58-.17-.82-.27-.42-.47-.55-.42-.2-.67-.2-.47.07-.67.2c-.2.13-.35.31-.47.55s-.17.51-.17.82.06.58.17.81c.11.24.27.42.47.55.2.13.42.2.67.2zM123.43 15.66c-.46 0-.82-.16-1.1-.48-.28-.32-.41-.79-.41-1.4v-2.45h.67v2.41c0 .42.09.73.27.95.18.22.42.33.73.33.22 0 .42-.06.6-.19s.32-.3.43-.52.16-.46.16-.72v-2.26h.67v4.26h-.58l-.07-.78c-.14.26-.33.46-.58.62-.24.16-.51.24-.79.24zM126.75 11.76l-.29-.33c.21-.08.37-.2.5-.34s.2-.31.22-.51c-.06.03-.13.04-.22.04-.13 0-.23-.04-.31-.13-.08-.09-.12-.2-.12-.33s.04-.24.13-.33.2-.13.35-.13c.18 0 .32.06.43.19s.17.31.17.56c0 .28-.07.54-.22.76s-.36.4-.65.54zM129.63 15.66c-.41 0-.75-.12-1.01-.35-.26-.23-.39-.52-.39-.88 0-.21.05-.4.16-.59.11-.19.29-.35.55-.49.26-.14.61-.25 1.06-.31l1.11-.18v-.02c0-.36-.1-.61-.3-.77s-.44-.23-.72-.23-.5.07-.7.2c-.19.13-.37.32-.52.55l-.44-.49c.16-.23.38-.43.65-.61s.62-.27 1.05-.27c.31 0 .58.06.83.17.25.11.45.29.59.53.15.24.22.55.22.94v2.72h-.58l-.08-.83c-.14.28-.35.51-.61.67s-.56.24-.9.24zm.84-4.92h-.54l-1.09-1.29h.8l.83 1.29zm-1.54 3.66c0 .19.07.34.21.46s.35.18.61.18.51-.06.71-.18.36-.29.48-.5c.11-.21.17-.45.17-.71v-.24l-1.03.18c-.32.06-.57.13-.73.21s-.28.18-.34.28-.09.21-.09.33z"/><g><path d="M91.07 28.57v1.61h-6.88v-1.61h6.88zM107.92 24.52l-6.49 12.28h-5.46l6.61-12.28h-9.43v-3.56h14.77v3.56zM125.44 21.55c1.65.76 2.38 1.78 2.58 3.54.09.66.12 1.71.12 3.78 0 4.18-.12 4.96-.88 5.96-.67.86-1.79 1.52-3.08 1.81-.79.17-2.38.29-4.2.29-2.82 0-4.32-.19-5.43-.71-1.62-.76-2.38-1.81-2.56-3.54-.09-.67-.12-1.73-.12-3.82 0-4.13.12-4.92.88-5.92.65-.83 1.79-1.52 3.08-1.8.76-.17 2.44-.29 4.17-.29 2.94 0 4.26.17 5.43.71zm-2.29 7.08c0-3.14-.03-3.44-.5-3.82-.47-.38-1.09-.47-3.14-.47-1.26 0-1.79.14-2.17.55-.41.47-.47.97-.47 3.56q0 .26.03 1.66 0 1.76.12 2.16c.27.97.79 1.16 3.14 1.16 1.47 0 2.06-.14 2.47-.57.23-.24.41-.76.47-1.35q0-.17.03-1.57l.03-1.31zM137.49 21.44c.82.59 1.03 1.16 1.03 2.85 0 2.18-.03 2.52-.29 3.11-.53 1.19-1.35 1.5-3.93 1.5-1.82 0-2.56-.17-3.2-.71a2.58 2.58 0 01-.71-1.31c-.09-.36-.09-.4-.09-2.45 0-1.73.12-2.19.73-2.73.71-.64 1.29-.76 3.38-.76 1.97 0 2.5.1 3.08.5zm-4.61 4.18c0 1.4.09 1.5 1.59 1.5q1.41 0 1.5-2.38c0-1.66 0-1.69-.35-1.88-.21-.14-.5-.17-1.44-.17-1.23 0-1.29.09-1.29 2.07v.85zm3.76 11.18h-2.35l11.57-15.84h2.35L136.64 36.8zm14.53-7.43c.82.59 1.03 1.16 1.03 2.85 0 2.19-.03 2.52-.29 3.11-.53 1.19-1.35 1.5-3.93 1.5-1.82 0-2.53-.17-3.17-.71-.32-.31-.62-.81-.7-1.31-.09-.36-.09-.4-.09-2.45 0-1.73.12-2.19.73-2.73.71-.64 1.29-.76 3.38-.76 1.94 0 2.47.09 3.05.5zm-4.58 4.18c0 1.4.09 1.5 1.55 1.5s1.41 0 1.5-2.38c0-1.66-.03-1.69-.35-1.88-.21-.14-.5-.17-1.41-.17-1.23 0-1.29.09-1.29 2.07v.85z"/></g></svg>