<svg xmlns="http://www.w3.org/2000/svg" viewBox="0 0 135 40" preserveAspectRatio="xMinYMin meet"><defs><linearGradient x1="91.488%" y1="4.948%" x2="-38.352%" y2="71.907%" id="a"><stop stop-color="#00a0ff" offset="0%"/><stop stop-color="#00a1ff" offset="1%"/><stop stop-color="#00beff" offset="26%"/><stop stop-color="#00d2ff" offset="51%"/><stop stop-color="#00dfff" offset="76%"/><stop stop-color="#00e3ff" offset="100%"/></linearGradient><linearGradient x1="107.685%" y1="50%" x2="-130.64%" y2="50%" id="b"><stop stop-color="#ffe000" offset="0%"/><stop stop-color="#ffbd00" offset="41%"/><stop stop-color="orange" offset="78%"/><stop stop-color="#ff9c00" offset="100%"/></linearGradient><linearGradient x1="86.219%" y1="17.877%" x2="-50.15%" y2="194.703%" id="c"><stop stop-color="#ff3a44" offset="0%"/><stop stop-color="#c31162" offset="100%"/></linearGradient><linearGradient x1="-18.754%" y1="-54.052%" x2="42.121%" y2="24.917%" id="d"><stop stop-color="#32a071" offset="0%"/><stop stop-color="#2da771" offset="7%"/><stop stop-color="#15cf74" offset="48%"/><stop stop-color="#06e775" offset="80%"/><stop stop-color="#00f076" offset="100%"/></linearGradient></defs><g fill-rule="evenodd"><rect fill-rule="nonzero" x=".105" y=".036" width="134.79" height="39.927" rx="5"/><path d="M46.053 10.21c0 .898-.255 1.587-.764 2.064s-1.244.717-2.206.717h-1.539V7.533h1.706c.887 0 1.576.235 2.066.706s.736 1.127.736 1.971zm-1.197.03c0-1.172-.515-1.758-1.546-1.758h-.613v3.554h.494c1.11 0 1.665-.599 1.665-1.796zm2.323 2.751V7.533h1.152v5.458h-1.152zm5.727-1.516c0 .493-.177.881-.53 1.165s-.844.426-1.474.426c-.58 0-1.093-.11-1.539-.329v-1.075c.367.164.677.28.931.347s.486.101.697.101c.253 0 .447-.049.582-.146s.203-.241.203-.433a.48.48 0 00-.089-.286 1 1 0 00-.262-.241c-.115-.077-.35-.2-.704-.37-.332-.157-.581-.307-.747-.452s-.299-.312-.398-.504-.149-.416-.149-.672c0-.483.163-.862.489-1.139s.776-.414 1.351-.414c.282 0 .552.034.808.101a5.54 5.54 0 01.805.284l-.372.9a5.42 5.42 0 00-.719-.25 2.322 2.322 0 00-.559-.071c-.218 0-.385.051-.502.153s-.175.235-.175.399c0 .102.024.191.071.267s.122.149.225.22.346.198.73.383c.508.244.856.488 1.044.734s.282.546.282.902zm2.137-1.374h.379c.354 0 .619-.07.795-.211s.264-.345.264-.614-.074-.472-.221-.601-.378-.194-.693-.194h-.524v1.62zm2.601-.866c0 .587-.183 1.037-.548 1.348s-.885.467-1.559.467h-.494v1.941h-1.152V7.533h1.736c.659 0 1.16.142 1.503.427s.515.71.515 1.275zm5.957 1.019c0 .903-.223 1.598-.669 2.083s-1.085.728-1.918.728-1.472-.243-1.918-.728-.669-1.182-.669-2.091.224-1.602.671-2.081 1.088-.719 1.923-.719 1.474.241 1.916.724.663 1.177.663 2.083zm-3.965 0c0 .61.115 1.069.346 1.378s.575.463 1.033.463c.919 0 1.379-.613 1.379-1.84s-.457-1.844-1.371-1.844c-.458 0-.804.155-1.037.465s-.349.77-.349 1.379zm9.912 2.736h-1.464L65.72 8.862h-.033l.071 1.56v2.568h-1.029V7.533h1.453l2.36 4.088h.026l-.056-1.504V7.533h1.037v5.458zm1.368 0V7.533h1.152v5.458h-1.152zm2.52-5.458h1.691c.771 0 1.33.11 1.678.33s.522.571.522 1.051c0 .326-.076.594-.229.803a.91.91 0 01-.608.377v.037c.344.077.593.222.745.433s.229.493.229.844c0 .498-.179.886-.537 1.165s-.844.418-1.459.418h-2.033V7.533zm1.152 2.162h.669c.312 0 .538-.049.678-.146s.21-.258.21-.482c0-.209-.076-.359-.229-.45s-.393-.136-.723-.136h-.606v1.213zm0 .918v1.422h.751c.317 0 .551-.061.702-.183s.227-.309.227-.56c0-.453-.322-.679-.966-.679h-.714zm3.962 2.378V7.533h1.152v4.502h2.204v.956H78.55zm7.429 0H82.85V7.533h3.129v.948h-1.977V9.68h1.84v.948h-1.84v1.407h1.977v.956zm6.318-1.516c0 .493-.177.881-.53 1.165s-.844.426-1.474.426c-.58 0-1.093-.11-1.539-.329v-1.075c.367.164.677.28.931.347s.486.101.697.101c.253 0 .447-.049.582-.146s.203-.241.203-.433a.48.48 0 00-.089-.286 1 1 0 00-.262-.241c-.115-.077-.35-.2-.704-.37-.332-.157-.581-.307-.747-.452s-.299-.312-.398-.504-.149-.416-.149-.672c0-.483.163-.862.489-1.139s.776-.414 1.351-.414c.282 0 .552.034.808.101a5.54 5.54 0 01.805.284l-.372.9a5.42 5.42 0 00-.719-.25 2.322 2.322 0 00-.559-.071c-.218 0-.385.051-.502.153s-.175.235-.175.399c0 .102.024.191.071.267s.122.149.225.22.346.198.73.383c.508.244.856.488 1.044.734s.282.546.282.902zm5.407-3.942v3.532c0 .403-.09.757-.269 1.06s-.439.536-.779.698-.741.243-1.204.243c-.699 0-1.241-.18-1.628-.539s-.58-.852-.58-1.476V7.533h1.148v3.341c0 .421.084.729.253.926s.447.295.836.295c.377 0 .65-.099.819-.297s.255-.508.255-.931V7.533h1.148zm2.483 2.423h.372c.364 0 .633-.061.806-.183s.26-.314.26-.575-.089-.443-.266-.553-.452-.164-.823-.164h-.349v1.475zm0 .941v2.094h-1.152V7.533h1.583c.738 0 1.285.135 1.639.405s.531.68.531 1.23c0 .321-.088.607-.264.857s-.425.446-.747.588l1.598 2.378h-1.278l-1.297-2.094h-.613z" fill="#fff"/><g fill-rule="nonzero"><path d="M129.903.835a4.192 4.192 0 014.193 4.192v29.946a4.192 4.192 0 01-4.193 4.192H5.097a4.192 4.192 0 01-4.193-4.192V5.027A4.192 4.192 0 015.097.835h124.806zm0-.799H5.097A4.992 4.992 0 00.105 5.027v29.946a4.992 4.992 0 004.992 4.991h124.806a4.992 4.992 0 004.992-4.991V5.027a4.992 4.992 0 00-4.992-4.991z" fill="#a6a6a6"/><path d="M68.139 21.747a4.242 4.242 0 00.027 8.485 4.243 4.243 0 004.237-4.242 4.18 4.18 0 00-1.232-3.025 4.183 4.183 0 00-3.032-1.217zm0 6.818a2.576 2.576 0 112.396-2.575 2.46 2.46 0 01-2.396 2.575zm-9.296-6.818a4.243 4.243 0 00.014 8.485 4.242 4.242 0 004.24-4.242 4.18 4.18 0 00-1.232-3.025 4.183 4.183 0 00-3.032-1.217h.01zm0 6.818a2.577 2.577 0 01-2.08-4.318 2.577 2.577 0 014.466 1.743 2.46 2.46 0 01-2.396 2.575h.01zm-11.073-5.51v1.797h4.313a3.77 3.77 0 01-.998 2.266 4.415 4.415 0 01-3.325 1.318 4.792 4.792 0 110-9.582 4.59 4.59 0 013.265 1.288l1.268-1.268a6.28 6.28 0 00-4.523-1.867 6.6 6.6 0 00-5.929 3.22 6.595 6.595 0 000 6.746 6.6 6.6 0 005.929 3.22 5.99 5.99 0 004.603-1.847 5.99 5.99 0 001.558-4.212 5.86 5.86 0 00-.1-1.128l-6.061.05zm45.24 1.397a3.993 3.993 0 00-3.634-2.705 3.998 3.998 0 00-2.916 1.256 3.99 3.99 0 00-1.078 2.986 4.15 4.15 0 001.205 3.016 4.153 4.153 0 003.008 1.226 4.223 4.223 0 003.535-1.877l-1.448-.998a2.426 2.426 0 01-2.087 1.178 2.156 2.156 0 01-2.057-1.288l5.681-2.346-.21-.449zm-5.791 1.417a2.323 2.323 0 012.217-2.475 1.65 1.65 0 011.578.898l-3.794 1.577zm-4.613 4.113h1.867V17.505h-1.867v12.477zm-3.055-7.287h-.07a2.997 2.997 0 00-2.237-.998 4.253 4.253 0 000 8.494 2.9 2.9 0 002.237-.998h.06v.609c0 1.627-.869 2.495-2.266 2.495a2.348 2.348 0 01-2.137-1.507l-1.627.679a4.043 4.043 0 003.764 2.505c2.187 0 3.994-1.288 3.994-4.422v-7.556h-1.717v.699zm-2.137 5.869a2.585 2.585 0 010-5.15 2.394 2.394 0 012.266 2.575 2.377 2.377 0 01-2.276 2.576h.01zm24.342-11.06h-4.463v12.477h1.867V25.25h2.606a3.885 3.885 0 003.595-1.852 3.88 3.88 0 000-4.043 3.886 3.886 0 00-3.595-1.852h-.01zm0 5.989H99.15v-4.252h2.646a2.14 2.14 0 110 4.282l-.04-.03zm11.512-1.797a3.495 3.495 0 00-3.325 1.907l1.657.689c.334-.615 1-.975 1.697-.918a1.8 1.8 0 011.335.385c.375.302.614.743.661 1.222v.13a4.127 4.127 0 00-1.947-.479c-1.787 0-3.594.998-3.594 2.805a2.886 2.886 0 003.096 2.745 2.625 2.625 0 002.396-1.198h.06v.998h1.797v-4.801c0-2.186-1.657-3.454-3.784-3.454l-.05-.03zm-.23 6.838c-.609 0-1.458-.309-1.458-1.058 0-.998 1.058-1.328 1.997-1.328a3.311 3.311 0 011.697.419 2.256 2.256 0 01-2.187 1.996l-.05-.03zm10.613-6.538l-2.137 5.41h-.06l-2.217-5.41h-1.997l3.325 7.566-1.897 4.202h1.947l5.112-11.769h-2.077zm-16.784 7.985h1.867V17.505h-1.867v12.477z" fill="#fff"/><path d="M10.529 7.563c-.325.39-.49.89-.459 1.397v22.08c-.03.507.134 1.007.459 1.397l.07.07 12.37-12.357v-.289L10.599 7.493l-.07.07z" fill="url(#a)"/><path d="M27.063 24.272l-4.094-4.123v-.289l4.094-4.132.09.05 4.902 2.785c1.398.789 1.398 2.086 0 2.885l-4.882 2.775-.11.05z" fill="url(#b)"/><path d="M27.183 24.212L22.969 20l-12.44 12.437a1.63 1.63 0 002.077.06l14.587-8.285" fill="url(#c)"/><path d="M27.183 15.788L12.595 7.503a1.63 1.63 0 00-2.077.06L22.969 20l4.213-4.212z" fill="url(#d)"/><path d="M27.063 24.123l-14.467 8.235a1.67 1.67 0 01-1.997 0l-.07.07.07.07a1.66 1.66 0 001.997 0l14.587-8.285-.12-.09z" opacity=".2"/><path d="M10.529 32.298c-.325-.39-.49-.89-.459-1.397v.15a2 2 0 00.459 1.397l.07-.07-.07-.08zm21.526-11l-4.992 2.825.09.09 4.902-2.775c.566-.266.947-.814.998-1.437a1.86 1.86 0 01-.998 1.298z" opacity=".12"/><path d="M12.595 7.642l19.46 11.06c.516.255.885.734.998 1.298a1.746 1.746 0 00-.998-1.437l-19.46-11.06c-1.398-.789-2.536-.13-2.536 1.467v.15c.03-1.607 1.148-2.266 2.536-1.477z" fill="#fff" opacity=".25"/></g></g></svg>