<svg xmlns="http://www.w3.org/2000/svg" width="24" height="24" viewBox="0 0 24 24"><path fill="#FFF" fill-rule="evenodd" d="M21.098,21.994 L2.903,21.994 L2.103,5.946 L5.091,5.946 C5.037,6.297 5,6.654 5,7.021 L5,7.951 L7,7.951 L7,7.021 C7,6.651 7.046,6.293 7.122,5.946 L16.878,5.946 C16.954,6.293 17,6.651 17,7.021 L17,7.951 L19,7.951 L19,7.021 C19,6.654 18.964,6.297 18.91,5.946 L21.898,5.946 L21.098,21.994 Z M12,2.006 C13.594,2.006 14.999,2.771 15.915,3.939 L8.085,3.939 C9.002,2.771 10.407,2.006 12,2.006 L12,2.006 Z M18.281,3.939 C17.14,1.611 14.757,0 12,0 C9.244,0 6.861,1.611 5.72,3.939 L0,3.939 L1,24 L23,24 L24,3.939 L18.281,3.939 Z"/></svg>