<svg xmlns="http://www.w3.org/2000/svg" width="20" height="20" viewBox="0 0 20 20"><path fill="#FFF" fill-rule="evenodd" d="M8.51515152,15.1818182 C4.83931818,15.1818182 1.84848485,12.1909848 1.84848485,8.51515152 C1.84848485,4.83931818 4.83931818,1.84848485 8.51515152,1.84848485 C12.1909848,1.84848485 15.1818182,4.83931818 15.1818182,8.51515152 C15.1818182,12.1909848 12.1909848,15.1818182 8.51515152,15.1818182 L8.51515152,15.1818182 Z M20.1818182,19.0034848 L14.9659848,13.7876515 C16.1418182,12.3518182 16.8484848,10.5159848 16.8484848,8.51515152 C16.8484848,3.91348485 13.1168182,0.181818182 8.51515152,0.181818182 C3.91348485,0.181818182 0.181818182,3.91348485 0.181818182,8.51515152 C0.181818182,13.1168182 3.91348485,16.8484848 8.51515152,16.8484848 C10.5159848,16.8484848 12.3518182,16.1418182 13.7876515,14.9659848 L19.0034848,20.1818182 L20.1818182,19.0034848 Z"/></svg>